# xmcd
#
# Track frame offsets:
#	150
#	55204
#	120307
#	166285
#	223439
#	257792
#	260870
#	262973
#	266019
#	271885
#	277602
#	284276
#	289408
#	297601
#	301811
#	308172
#	311952
#	316199
#	323955
#
# Disc length: 4365 seconds
#
# Revision: 1
# Processed by: cddbd v1.5.1PL2 Copyright (c) Steve Scherf et al.
# Submitted via: EasyCDDAExtractor 5.0.6
#
DISCID=33110b13
DTITLE=Dolly Parton - Halos and Horns Radio Special Hosted By Rusty Miller
DYEAR=2002
DGENRE=Country
TTITLE0=Segment 1
TTITLE1=Segment 2
TTITLE2=Segment 3
TTITLE3=Segment 4
TTITLE4=Segment 5
TTITLE5=Rusty Miller Promo for Radio Special (with Music)
TTITLE6=Dolly Parton Promo for Radio Special (with Music)
TTITLE7=Q and A Number 1
TTITLE8=Q and A Number 2
TTITLE9=Q and A Number 3
TTITLE10=Q and A Number 4
TTITLE11=Q and A Number 5
TTITLE12=Q and A Number 6
TTITLE13=Q and A Number 7
TTITLE14=Q and A Number 8
TTITLE15=Q and A Number 9
TTITLE16=Q and A Number 10
TTITLE17=Q and A Number 11
TTITLE18=Q and A Number 12
EXTD=
EXTT0=
EXTT1=
EXTT2=
EXTT3=
EXTT4=
EXTT5=
EXTT6=
EXTT7=Question: "Dolly, Please tell us about your earliest musical memories an
EXTT7=d how they impacted you."
EXTT8=Question: "One of your signature songs is "Coat of Many Colors", a true 
EXTT8=story from your childhood. Could you tell us the story behind the song?"
EXTT9=Question: "Tell us about moving to Nashville in the early 60's"
EXTT10=Question: "You really became know to a national audience on Porter Wago
EXTT10=ner's TV Show. How did you meet?"
EXTT11=Question: "The early to mid-70's was a period that saw your music caree
EXTT11=r really explode and you became an international star. Describe what th
EXTT11=at time in your life was like."
EXTT12=Question: "How did you get into acting?"
EXTT13=Question: "How did you feel when you were inducted into the Country Mus
EXTT13=ic Hall of Fame?"
EXTT14=Question: "Tell us about operating Dollywood and what that experience h
EXTT14=as been like."
EXTT15=Question: "How do you stay so prolific in your songwriting?"
EXTT16=Question: "For many years your successes were crossing over to pop from
EXTT16=country. But your last three albums have been a clear return to your r
EXTT16=oots including the new "Halos and Horns" album. Tell us about that change
EXTT16=in style and direction."
EXTT17=Question: "Tell us about the making of "Halos and Horns" and how you bega
EXTT17=n the process."
EXTT18=Question: "What is your secret formula to sucess, longevity and happine
EXTT18=ss?"
PLAYORDER=
